<?xml version="1.0" encoding="UTF-8" standalone="no"?>
<!DOCTYPE svg PUBLIC "-//W3C//DTD SVG 1.1//EN" "http://www.w3.org/Graphics/SVG/1.1/DTD/svg11.dtd">
<svg width="100%" height="100%" viewBox="0 0 115 150" version="1.1" xmlns="http://www.w3.org/2000/svg" xmlns:xlink="http://www.w3.org/1999/xlink" xml:space="preserve" style="fill-rule:evenodd;clip-rule:evenodd;stroke-linejoin:round;stroke-miterlimit:1.41421;">
    <g transform="matrix(3.94737,0,0,3.94737,0,0)">
        <g>
            <path d="M21.82,20.394L20.707,20.623C16.941,20.86 14.448,19.798 9.973,19.648L6.973,20.394C2.871,21.422 0,25.09 0,29.312L0,34.371C0,35.805 1.188,37 2.621,37L26.176,37C27.609,37 28.785,35.805 28.785,34.371L28.785,29.312C28.785,25.09 25.918,21.422 21.82,20.394M4.98,35.398L2.621,35.398C2.07,35.398 1.598,34.922 1.598,34.371L1.598,29.312C1.598,26.722 2.926,24.383 4.98,23.004L4.98,35.398M14.988,35.398L13.832,35.398L8.324,21.719L11.762,20.855C13.501,20.405 15.325,20.454 17.008,20.84L20.504,21.726L14.988,35.398M27.188,34.371C27.188,34.922 26.727,35.398 26.176,35.398L23.867,35.398L23.867,23.039C25.895,24.422 27.188,26.742 27.188,29.312L27.188,34.371" style="fill-rule:nonzero;"/>
            <g id="Head" transform="matrix(1,0,0,1,0.406,0.29)">
                <g transform="matrix(1.61299,0.203614,-0.203614,1.61299,-263.79,-463.123)">
                    <path d="M211.508,265.126C211.633,265.251 211.74,265.42 211.829,265.635C211.919,265.849 211.963,266.045 211.963,266.224L211.849,273.036C211.849,273.214 211.787,273.366 211.662,273.491C211.537,273.616 211.385,273.679 211.207,273.679L202.207,273.679C202.028,273.679 201.876,273.616 201.751,273.491C201.626,273.366 201.564,273.214 201.564,273.036L201.678,263.224C201.678,263.045 201.74,262.894 201.865,262.769C201.99,262.644 202.142,262.581 202.32,262.581L208.32,262.581C208.499,262.581 208.695,262.626 208.91,262.715C209.124,262.804 209.294,262.911 209.419,263.036L211.508,265.126ZM208.535,263.492L208.535,266.01L211.053,266.01C211.008,265.88 210.959,265.789 210.905,265.735L208.809,263.639C208.756,263.586 208.664,263.536 208.535,263.492ZM210.992,272.821L211.106,266.867L208.32,266.867C208.142,266.867 207.99,266.804 207.865,266.679C207.74,266.554 207.678,266.403 207.678,266.224L207.678,263.438L202.535,263.438L202.421,272.821L210.992,272.821ZM204.103,267.995C204.103,267.932 204.123,267.881 204.164,267.841C204.204,267.801 204.255,267.781 204.318,267.781L209.032,267.781C209.094,267.781 209.146,267.801 209.186,267.841C209.226,267.881 209.246,267.932 209.246,267.995L209.246,268.423C209.246,268.486 209.226,268.537 209.186,268.577C209.146,268.618 209.094,268.638 209.032,268.638L204.318,268.638C204.255,268.638 204.204,268.618 204.164,268.577C204.123,268.537 204.103,268.486 204.103,268.423L204.103,267.995ZM209.032,269.495C209.094,269.495 209.146,269.515 209.186,269.555C209.226,269.595 209.246,269.647 209.246,269.709L209.246,270.138C209.246,270.2 209.226,270.252 209.186,270.292C209.146,270.332 209.094,270.352 209.032,270.352L204.318,270.352C204.255,270.352 204.204,270.332 204.164,270.292C204.123,270.252 204.103,270.2 204.103,270.138L204.103,269.709C204.103,269.647 204.123,269.595 204.164,269.555C204.204,269.515 204.255,269.495 204.318,269.495L209.032,269.495ZM209.032,271.209C209.094,271.209 209.146,271.229 209.186,271.269C209.226,271.31 209.246,271.361 209.246,271.423L209.246,271.852C209.246,271.915 209.226,271.966 209.186,272.006C209.146,272.046 209.094,272.066 209.032,272.066L204.318,272.066C204.255,272.066 204.204,272.046 204.164,272.006C204.123,271.966 204.103,271.915 204.103,271.852L204.103,271.423C204.103,271.361 204.123,271.31 204.164,271.269C204.204,271.229 204.255,271.209 204.318,271.209L209.032,271.209Z" style="fill-rule:nonzero;"/>
                </g>
                <g transform="matrix(1.61299,0.203614,-0.203614,1.61299,-263.113,-468.607)">
                    <path d="M204.103,267.995C204.103,267.932 204.123,267.881 204.164,267.841C204.204,267.801 204.255,267.781 204.318,267.781L206.7,267.769C206.763,267.769 206.814,267.789 206.854,267.83C206.894,267.87 206.914,267.921 206.914,267.984L206.914,268.412C206.914,268.475 206.894,268.526 206.854,268.566C206.814,268.606 206.763,268.626 206.7,268.626L204.318,268.638C204.255,268.638 204.204,268.618 204.164,268.577C204.123,268.537 204.103,268.486 204.103,268.423L204.103,267.995ZM206.7,269.484C206.763,269.484 206.814,269.504 206.854,269.544C206.894,269.584 206.914,269.635 206.914,269.698L206.914,270.126C206.914,270.189 206.894,270.24 206.854,270.28C206.814,270.321 206.763,270.341 206.7,270.341L204.318,270.352C204.255,270.352 204.204,270.332 204.164,270.292C204.123,270.252 204.103,270.2 204.103,270.138L204.103,269.709C204.103,269.647 204.123,269.595 204.164,269.555C204.204,269.515 204.255,269.495 204.318,269.495L206.7,269.484Z" style="fill-rule:nonzero;"/>
                </g>
            </g>
            <path d="M15.297,27.769C15.297,28.273 14.887,28.683 14.383,28.683C13.879,28.683 13.469,28.273 13.469,27.769C13.469,27.262 13.879,26.855 14.383,26.855C14.887,26.855 15.297,27.262 15.297,27.769Z" style="fill-rule:nonzero;"/>
            <path d="M15.297,31.027C15.297,31.531 14.887,31.941 14.383,31.941C13.879,31.941 13.469,31.531 13.469,31.027C13.469,30.523 13.879,30.113 14.383,30.113C14.887,30.113 15.297,30.523 15.297,31.027Z" style="fill-rule:nonzero;"/>
            <path d="M17.102,22.215L15.453,22.691C15.43,22.699 15.402,22.703 15.379,22.707C15.113,22.476 14.766,22.32 14.387,22.32C14.008,22.32 13.66,22.472 13.395,22.707C13.367,22.703 13.344,22.699 13.32,22.691L11.68,22.215C11.188,22.074 10.723,22.445 10.723,22.953L10.723,24.82C10.723,25.332 11.188,25.703 11.68,25.558L13.395,25.058C13.66,25.297 14.004,25.445 14.387,25.457C14.77,25.445 15.117,25.297 15.383,25.058L17.098,25.558C17.59,25.703 18.066,25.332 18.066,24.82L18.066,22.953C18.066,22.441 17.594,22.074 17.102,22.215Z" style="fill-rule:nonzero;"/>
        </g>
    </g>
</svg>
